<svg id="Layer_1" data-name="Layer 1" xmlns="http://www.w3.org/2000/svg" viewBox="0 0 2280.16 2280"><defs><style>.cls-1{fill:#1c545d;}.cls-2{fill:#526f78;}.cls-3{fill:#a1b0b6;}.cls-4{fill:#93a5ab;}.cls-5{fill:#778f96;}.cls-6{fill:#b0bcc1;}.cls-7{fill:#b6c1c5;}.cls-8{fill:#b5c0c4;}.cls-9{fill:#9eadb2;}.cls-10{fill:#9fafb4;}.cls-11{fill:#9babb1;}.cls-12{fill:#91a3aa;}.cls-13{fill:#9faeb3;}.cls-14{fill:#869ba2;}.cls-15{fill:#b8bfc4;}.cls-16{fill:#1d545d;}.cls-17{fill:#90a2a9;}.cls-18{fill:#8a9fa5;}.cls-19{fill:#92a4aa;}.cls-20{fill:#708991;}.cls-21{fill:#8c9fa6;}.cls-22{fill:#8ea1a8;}</style></defs><title>Facoolte Logo</title><path class="cls-1" d="M-842.5,813.6V-716.55H1437.66v2280H-842.5V1017.63l1.55-1.12c3.25-.06,6.5-.18,9.74-.18H299.08c8.75,0,17.51.15,26.24-.24,13.23-.59,26.44-1.59,39.65-2.42l1.95-.24a579.5,579.5,0,0,0,81.42-12.17C534,982.66,611.76,947.08,679.56,891.43,771.32,816.12,839.5,723.83,877,610.25c5.28-16,10.33-32.09,14.71-48.34a381.28,381.28,0,0,0,10.63-58.24c1.25-11.66,3.22-23.24,4.87-34.86.11-.7.23-1.4.34-2.09q.53-8.69,1-17.36l.33-3.48.13-80.41c-.09-.71-.17-1.42-.26-2.14q-.57-8.68-1.13-17.39c-.18-1.19-.37-2.38-.55-3.57-1.24-10.84-2.22-21.73-3.79-32.52A586.82,586.82,0,0,0,886,230.37a548.08,548.08,0,0,0-23.62-65.46c-32.74-75.42-80.67-140-140.27-196.2C654.17-95.34,576.34-142.61,486.74-169.76c-13.31-4-27.05-6.67-40.61-9.84-11.36-2.65-22.7-5.45-34.16-7.57-8.06-1.5-16.32-1.87-24.47-2.9-7.86-1-15.7-2.21-23.54-3.32l-2-.3c-33.8-3.15-67.65-3.27-101.52-1.54l-3.51.35-17.57,1.3-2,.26c-3.89.59-7.76,1.31-11.66,1.75-10.28,1.17-20.65,1.78-30.86,3.4a574.29,574.29,0,0,0-102,25.82C10.24-133.09-61.31-86.3-123.73-25.08c-77,75.54-132,164.2-160,268.92a636.87,636.87,0,0,0-15.51,75.6c-2,14-2.41,28.22-3.53,42.35-.07.68-.13,1.36-.2,2-.43,18.17-1.13,36.34-1.2,54.51,0,11.68.85,23.37,1.31,35.06-.12.21-.38.45-.34.62a9.4,9.4,0,0,0,.52,1.29q.6,8,1.21,16.08l.27,1.95c.64,6.63,1,13.3,2,19.9,3,21.44,6.47,42.8,11.64,63.87a586.33,586.33,0,0,0,30.11,91.35c25.93,60.46,61.35,114.79,105.42,163.55l.06,1.77c-2.5.05-5,.14-7.49.14H-835C-837.52,813.91-840,813.71-842.5,813.6ZM187.91-404.84l-.32,1.87q-.06,13.39-.14,26.79l.38,2c4.09,45.46,46.46,86.45,93,90l2,.28,23.6-.13,1.94-.22c11.82,0,23.15-2.85,34.17-6.66,19.81-6.83,35.37-19,45.54-37.7,7-12.87,10.27-26.76,11.74-41.19.08-.59.15-1.19.23-1.78l.06-31.42c.11-.21.35-.45.3-.61a8.16,8.16,0,0,0-.58-1.19,89.83,89.83,0,0,0-19.24-48C361.83-476.68,338.32-492,307-495c-13.34-1.3-26.32-1.44-39,1.56-35.63,8.45-59.43,31.19-74,64.24A68.91,68.91,0,0,0,187.91-404.84Z" transform="translate(842.5 716.55)"/><path class="cls-2" d="M-842.5,1016.13l1.55.38-1.55,1.12Z" transform="translate(842.5 716.55)"/><path class="cls-3" d="M908.6,449.36l.33-3.48Z" transform="translate(842.5 716.55)"/><path class="cls-4" d="M260.42-195.23l-3.51.35Z" transform="translate(842.5 716.55)"/><path class="cls-5" d="M907.67,345.94c-.18-1.19-.37-2.38-.55-3.57C907.3,343.56,907.49,344.75,907.67,345.94Z" transform="translate(842.5 716.55)"/><path class="cls-6" d="M187.91-404.84c-.1.62-.21,1.25-.32,1.87C187.7-403.59,187.81-404.22,187.91-404.84Z" transform="translate(842.5 716.55)"/><path class="cls-7" d="M400.15-403a8.88,8.88,0,0,1-.53-1.18c0-.17.16-.41.25-.62a8.16,8.16,0,0,1,.58,1.19C400.5-403.47,400.26-403.23,400.15-403Z" transform="translate(842.5 716.55)"/><path class="cls-6" d="M187.45-376.18c.13.65.26,1.31.38,2C187.7-374.87,187.58-375.52,187.45-376.18Z" transform="translate(842.5 716.55)"/><path class="cls-8" d="M399.86-369.82c.08-.59.15-1.19.23-1.78C400-371,399.94-370.41,399.86-369.82Z" transform="translate(842.5 716.55)"/><path class="cls-9" d="M280.86-284.2l2,.28Z" transform="translate(842.5 716.55)"/><path class="cls-9" d="M306.47-284l1.94-.22Z" transform="translate(842.5 716.55)"/><path class="cls-10" d="M239.34-193.58l-2,.26Z" transform="translate(842.5 716.55)"/><path class="cls-11" d="M364-193.39l-2-.3Z" transform="translate(842.5 716.55)"/><path class="cls-12" d="M-302.78,361.79c-.07.68-.13,1.36-.2,2C-302.91,363.15-302.85,362.47-302.78,361.79Z" transform="translate(842.5 716.55)"/><path class="cls-5" d="M909.06,365.47c-.09-.71-.17-1.42-.26-2.14C908.89,364.05,909,364.76,909.06,365.47Z" transform="translate(842.5 716.55)"/><path class="cls-13" d="M-302.87,453.39a7.62,7.62,0,0,1,.48,1.28c0,.18-.19.41-.3.62a8.8,8.8,0,0,1-.52-1.28C-303.25,453.84-303,453.6-302.87,453.39Z" transform="translate(842.5 716.55)"/><path class="cls-14" d="M907.22,468.81c.11-.7.23-1.4.34-2.09C907.45,467.41,907.33,468.11,907.22,468.81Z" transform="translate(842.5 716.55)"/><path class="cls-3" d="M-301.48,471.38a9.09,9.09,0,0,1,.55,1.29c.05.18-.18.44-.28.66Z" transform="translate(842.5 716.55)"/><path class="cls-15" d="M-152.07,812l.06,1.77Z" transform="translate(842.5 716.55)"/><path class="cls-9" d="M365,1013.66l1.95-.24Z" transform="translate(842.5 716.55)"/><path class="cls-16" d="M271,3.93h59.44l2.06.22C345,5.52,357.63,6.23,370,8.46c16.33,2.94,32.53,6.45,48.59,11,26.35,7.46,51.68,17.18,75.26,30.77,100.72,58,169.24,141.46,198.83,255,4.28,16.4,7.89,33,8.64,50.06.23,5.17,1.45,10.3,2.22,15.44l.29,2.06q.64,14,1.28,27.94c0,1.19.07,2.39.11,3.58q0,7.2-.05,14.42l-.09,2.12c-.81,12.66-1.16,25.37-2.53,38-8.38,77.46-37.06,146.48-87,206.41-42.75,51.29-93.86,91.68-155.68,117.81C430,795.66,399,803.83,367.08,809.14c-12,2-24.07,2.59-36.11,3.83l-2.08.21H269.4l-2-.19-16-1.38-2.13-.39c-10.9-1.23-22-1.59-32.65-3.89-16.26-3.53-32.39-7.91-48.32-12.78C48.22,757.83-61,649.18-92.55,516.29c-3.19-13.45-6.88-26.89-8.59-40.55a519.57,519.57,0,0,1-3.5-82c.19-5.49.43-11,.64-16.47l.45-3.52c.75-9.12,1.14-18.29,2.34-27.34,1-7.86,3-15.59,4.55-23.38C-67.32,172.89,51.2,63.81,161.63,25.91A407.38,407.38,0,0,1,231.07,8.45c12.52-1.95,25.2-2.89,37.8-4.29Z" transform="translate(842.5 716.55)"/><path class="cls-17" d="M-103.55,373.77l-.45,3.52Z" transform="translate(842.5 716.55)"/><path class="cls-18" d="M705.22,404.33c0-1.19-.07-2.39-.11-3.58C705.15,401.94,705.18,403.14,705.22,404.33Z" transform="translate(842.5 716.55)"/><path class="cls-19" d="M271,3.93l-2.08.23Z" transform="translate(842.5 716.55)"/><path class="cls-17" d="M332.45,4.14l-2.06-.22Z" transform="translate(842.5 716.55)"/><path class="cls-18" d="M705.08,420.87l.09-2.12Z" transform="translate(842.5 716.55)"/><path class="cls-19" d="M703.83,372.81l-.29-2.06C703.64,371.44,703.74,372.13,703.83,372.81Z" transform="translate(842.5 716.55)"/><path class="cls-20" d="M249.18,811.22l2.13.39Z" transform="translate(842.5 716.55)"/><path class="cls-21" d="M267.35,813l2,.19Z" transform="translate(842.5 716.55)"/><path class="cls-22" d="M328.89,813.18,331,813Z" transform="translate(842.5 716.55)"/></svg>